<svg width="1400" height="900" viewBox="0 0 1400 900" fill="none" xmlns="http://www.w3.org/2000/svg">
  <defs>
    <linearGradient id="bg" x1="120" y1="80" x2="1240" y2="820" gradientUnits="userSpaceOnUse">
      <stop stop-color="#070B14"/>
      <stop offset="1" stop-color="#0C1324"/>
    </linearGradient>
    <linearGradient id="halo" x1="460" y1="210" x2="890" y2="600" gradientUnits="userSpaceOnUse">
      <stop stop-color="#25E1FF"/>
      <stop offset="1" stop-color="#7A5CFF"/>
    </linearGradient>
    <linearGradient id="path" x1="560" y1="380" x2="770" y2="555" gradientUnits="userSpaceOnUse">
      <stop stop-color="#C9F8FF"/>
      <stop offset="1" stop-color="#D8D0FF"/>
    </linearGradient>
    <filter id="blur" x="320" y="130" width="680" height="680" filterUnits="userSpaceOnUse">
      <feGaussianBlur stdDeviation="45"/>
    </filter>
  </defs>

  <rect width="1400" height="900" rx="38" fill="url(#bg)"/>

  <circle cx="700" cy="430" r="240" fill="url(#halo)" fill-opacity="0.2" filter="url(#blur)"/>

  <path d="M700 190C795 190 875 220 930 278C985 336 1010 414 1002 500C990 622 903 722 772 770C747 779 717 790 700 790C683 790 653 779 628 770C497 722 410 622 398 500C390 414 415 336 470 278C525 220 605 190 700 190Z" fill="#0F1A32" stroke="url(#halo)" stroke-width="10"/>

  <path d="M585 505C633 450 679 422 726 378C749 356 780 320 803 288" stroke="url(#path)" stroke-width="22" stroke-linecap="round"/>
  <circle cx="804" cy="287" r="24" fill="#C8BDFF"/>
  <circle cx="584" cy="506" r="24" fill="#6CEBFF"/>

  <path d="M560 604C618 635 674 650 700 650C726 650 782 635 840 604" stroke="url(#halo)" stroke-opacity="0.7" stroke-width="8" stroke-linecap="round"/>

  <text x="700" y="845" text-anchor="middle" fill="#F3F7FF" font-family="Inter,Segoe UI,Arial,sans-serif" font-size="112" font-weight="700" letter-spacing="8">SENDA</text>
  <text x="700" y="885" text-anchor="middle" fill="#9BB0D8" font-family="Inter,Segoe UI,Arial,sans-serif" font-size="26" letter-spacing="5">PUREZA • HÁBITOS • PROPÓSITO</text>
</svg>